<?xml version="1.0" encoding="UTF-8"?>
<!DOCTYPE svg
PUBLIC "-//W3C//DTD SVG 1.1//EN"
       "http://www.w3.org/Graphics/SVG/1.1/DTD/svg11.dtd">
<svg viewBox="27 -10 1414 778" width="1387px" height="788px" xmlns="http://www.w3.org/2000/svg" version="1.1">
   <line x1="638" y1="324" x2="648" y2="324" style="stroke:#333;stroke-width:1;"/>
   <line x1="766" y1="346" x2="776" y2="346" style="stroke:#333;stroke-width:1;"/>
   <line x1="648" y1="324" x2="766" y2="346" style="stroke:#333;stroke-width:1;"/>
   <line x1="645.5" y1="324" x2="641.96446609407" y2="327.53553390593" style="stroke:#333;stroke-width:2;"/>
   <line x1="645.5" y1="324" x2="641.96446609407" y2="320.46446609407" style="stroke:#333;stroke-width:2;"/>
   <line x1="771" y1="346" x2="767.46446609407" y2="349.53553390593" style="stroke:#333;stroke-width:2;"/>
   <line x1="771" y1="346" x2="767.46446609407" y2="342.46446609407" style="stroke:#333;stroke-width:2;"/>
   <line x1="250" y1="311" x2="260" y2="311" style="stroke:#333;stroke-width:1;"/>
   <line x1="444" y1="284" x2="454" y2="284" style="stroke:#333;stroke-width:1;"/>
   <line x1="260" y1="311" x2="444" y2="284" style="stroke:#333;stroke-width:1;"/>
   <line x1="257.5" y1="311" x2="253.96446609407" y2="314.53553390593" style="stroke:#333;stroke-width:2;"/>
   <line x1="257.5" y1="311" x2="253.96446609407" y2="307.46446609407" style="stroke:#333;stroke-width:2;"/>
   <line x1="449" y1="284" x2="445.46446609407" y2="287.53553390593" style="stroke:#333;stroke-width:2;"/>
   <line x1="449" y1="284" x2="445.46446609407" y2="280.46446609407" style="stroke:#333;stroke-width:2;"/>
   <line x1="237" y1="79" x2="247" y2="79" style="stroke:#333;stroke-width:1;"/>
   <line x1="444" y1="284" x2="454" y2="284" style="stroke:#333;stroke-width:1;"/>
   <line x1="247" y1="79" x2="444" y2="284" style="stroke:#333;stroke-width:1;"/>
   <line x1="244.5" y1="79" x2="240.96446609407" y2="82.535533905933" style="stroke:#333;stroke-width:2;"/>
   <line x1="244.5" y1="79" x2="240.96446609407" y2="75.464466094067" style="stroke:#333;stroke-width:2;"/>
   <line x1="449" y1="284" x2="445.46446609407" y2="287.53553390593" style="stroke:#333;stroke-width:2;"/>
   <line x1="449" y1="284" x2="445.46446609407" y2="280.46446609407" style="stroke:#333;stroke-width:2;"/>
   <line x1="226" y1="519" x2="236" y2="519" style="stroke:#333;stroke-width:1;"/>
   <line x1="444" y1="284" x2="454" y2="284" style="stroke:#333;stroke-width:1;"/>
   <line x1="236" y1="519" x2="444" y2="284" style="stroke:#333;stroke-width:1;"/>
   <line x1="233.5" y1="519" x2="229.96446609407" y2="522.53553390593" style="stroke:#333;stroke-width:2;"/>
   <line x1="233.5" y1="519" x2="229.96446609407" y2="515.46446609407" style="stroke:#333;stroke-width:2;"/>
   <line x1="449" y1="284" x2="445.46446609407" y2="287.53553390593" style="stroke:#333;stroke-width:2;"/>
   <line x1="449" y1="284" x2="445.46446609407" y2="280.46446609407" style="stroke:#333;stroke-width:2;"/>
   <line x1="442" y1="81" x2="432" y2="81" style="stroke:#333;stroke-width:1;"/>
   <line x1="444" y1="284" x2="454" y2="284" style="stroke:#333;stroke-width:1;"/>
   <line x1="432" y1="81" x2="444" y2="284" style="stroke:#333;stroke-width:1;"/>
   <line x1="434.5" y1="81" x2="438.03553390593" y2="84.535533905933" style="stroke:#333;stroke-width:2;"/>
   <line x1="434.5" y1="81" x2="438.03553390593" y2="77.464466094067" style="stroke:#333;stroke-width:2;"/>
   <line x1="449" y1="284" x2="445.46446609407" y2="287.53553390593" style="stroke:#333;stroke-width:2;"/>
   <line x1="449" y1="284" x2="445.46446609407" y2="280.46446609407" style="stroke:#333;stroke-width:2;"/>
   <line x1="444" y1="633" x2="434" y2="633" style="stroke:#333;stroke-width:1;"/>
   <line x1="444" y1="284" x2="454" y2="284" style="stroke:#333;stroke-width:1;"/>
   <line x1="434" y1="633" x2="444" y2="284" style="stroke:#333;stroke-width:1;"/>
   <line x1="436.5" y1="633" x2="440.03553390593" y2="636.53553390593" style="stroke:#333;stroke-width:2;"/>
   <line x1="436.5" y1="633" x2="440.03553390593" y2="629.46446609407" style="stroke:#333;stroke-width:2;"/>
   <line x1="449" y1="284" x2="445.46446609407" y2="287.53553390593" style="stroke:#333;stroke-width:2;"/>
   <line x1="449" y1="284" x2="445.46446609407" y2="280.46446609407" style="stroke:#333;stroke-width:2;"/>
   <rect width="184" height="20" x="869" y="8" style="fill:#007;stroke:black;"/>
   <text width="184" height="20" x="874" y="22" style="fill:#fff;" font-family="Arial" font-size="16px"> admin</text>
   <rect width="184" height="20" x="869" y="28" style="fill:none;stroke:black;"/>
   <text width="184" height="20" x="874" y="42" style="fill:black;" font-family="Arial" font-size="16px">admin_id</text>
   <rect width="184" height="20" x="869" y="48" style="fill:none;stroke:black;"/>
   <text width="184" height="20" x="874" y="62" style="fill:black;" font-family="Arial" font-size="16px">admin_number</text>
   <rect width="184" height="20" x="869" y="68" style="fill:none;stroke:black;"/>
   <text width="184" height="20" x="874" y="82" style="fill:black;" font-family="Arial" font-size="16px">admin_fullname</text>
   <rect width="184" height="20" x="869" y="88" style="fill:none;stroke:black;"/>
   <text width="184" height="20" x="874" y="102" style="fill:black;" font-family="Arial" font-size="16px">gender</text>
   <rect width="184" height="20" x="869" y="108" style="fill:none;stroke:black;"/>
   <text width="184" height="20" x="874" y="122" style="fill:black;" font-family="Arial" font-size="16px">email</text>
   <rect width="184" height="20" x="869" y="128" style="fill:none;stroke:black;"/>
   <text width="184" height="20" x="874" y="142" style="fill:black;" font-family="Arial" font-size="16px">phone</text>
   <rect width="184" height="20" x="869" y="148" style="fill:none;stroke:black;"/>
   <text width="184" height="20" x="874" y="162" style="fill:black;" font-family="Arial" font-size="16px">admin_address</text>
   <rect width="184" height="20" x="869" y="168" style="fill:none;stroke:black;"/>
   <text width="184" height="20" x="874" y="182" style="fill:black;" font-family="Arial" font-size="16px">date_created</text>
   <rect width="184" height="20" x="869" y="188" style="fill:none;stroke:black;"/>
   <text width="184" height="20" x="874" y="202" style="fill:black;" font-family="Arial" font-size="16px">role</text>
   <rect width="184" height="20" x="869" y="208" style="fill:none;stroke:black;"/>
   <text width="184" height="20" x="874" y="222" style="fill:black;" font-family="Arial" font-size="16px">password</text>
   <rect width="184" height="20" x="454" y="254" style="fill:#007;stroke:black;"/>
   <text width="184" height="20" x="459" y="268" style="fill:#fff;" font-family="Arial" font-size="16px"> clearance</text>
   <rect width="184" height="20" x="454" y="274" style="fill:none;stroke:black;"/>
   <text width="184" height="20" x="459" y="288" style="fill:black;" font-family="Arial" font-size="16px">clr_id</text>
   <rect width="184" height="20" x="454" y="294" style="fill:none;stroke:black;"/>
   <text width="184" height="20" x="459" y="308" style="fill:black;" font-family="Arial" font-size="16px">std_fullname</text>
   <rect width="184" height="20" x="454" y="314" style="fill:none;stroke:black;"/>
   <text width="184" height="20" x="459" y="328" style="fill:black;" font-family="Arial" font-size="16px">std_regNo</text>
   <rect width="184" height="20" x="454" y="334" style="fill:none;stroke:black;"/>
   <text width="184" height="20" x="459" y="348" style="fill:black;" font-family="Arial" font-size="16px">faculty</text>
   <rect width="184" height="20" x="454" y="354" style="fill:none;stroke:black;"/>
   <text width="184" height="20" x="459" y="368" style="fill:black;" font-family="Arial" font-size="16px">department</text>
   <rect width="184" height="20" x="454" y="374" style="fill:none;stroke:black;"/>
   <text width="184" height="20" x="459" y="388" style="fill:black;" font-family="Arial" font-size="16px">levels</text>
   <rect width="184" height="20" x="454" y="394" style="fill:none;stroke:black;"/>
   <text width="184" height="20" x="459" y="408" style="fill:black;" font-family="Arial" font-size="16px">programs</text>
   <rect width="184" height="20" x="454" y="414" style="fill:none;stroke:black;"/>
   <text width="184" height="20" x="459" y="428" style="fill:black;" font-family="Arial" font-size="16px">specialization</text>
   <rect width="184" height="20" x="454" y="434" style="fill:none;stroke:black;"/>
   <text width="184" height="20" x="459" y="448" style="fill:black;" font-family="Arial" font-size="16px">years</text>
   <rect width="184" height="20" x="454" y="454" style="fill:none;stroke:black;"/>
   <text width="184" height="20" x="459" y="468" style="fill:black;" font-family="Arial" font-size="16px">mode_of_study</text>
   <rect width="184" height="20" x="454" y="474" style="fill:none;stroke:black;"/>
   <text width="184" height="20" x="459" y="488" style="fill:black;" font-family="Arial" font-size="16px">campus</text>
   <rect width="184" height="20" x="454" y="494" style="fill:none;stroke:black;"/>
   <text width="184" height="20" x="459" y="508" style="fill:black;" font-family="Arial" font-size="16px">reason_for_clearance</text>
   <rect width="184" height="20" x="454" y="514" style="fill:none;stroke:black;"/>
   <text width="184" height="20" x="459" y="528" style="fill:black;" font-family="Arial" font-size="16px">date_of_submission</text>
   <rect width="184" height="20" x="66" y="261" style="fill:#007;stroke:black;"/>
   <text width="184" height="20" x="71" y="275" style="fill:#fff;" font-family="Arial" font-size="16px"> dean_clearance_request</text>
   <rect width="184" height="20" x="66" y="281" style="fill:none;stroke:black;"/>
   <text width="184" height="20" x="71" y="295" style="fill:black;" font-family="Arial" font-size="16px">dean_req_id</text>
   <rect width="184" height="20" x="66" y="301" style="fill:none;stroke:black;"/>
   <text width="184" height="20" x="71" y="315" style="fill:black;" font-family="Arial" font-size="16px">clr_id</text>
   <rect width="184" height="20" x="66" y="321" style="fill:none;stroke:black;"/>
   <text width="184" height="20" x="71" y="335" style="fill:black;" font-family="Arial" font-size="16px">std_fullnames</text>
   <rect width="184" height="20" x="66" y="341" style="fill:none;stroke:black;"/>
   <text width="184" height="20" x="71" y="355" style="fill:black;" font-family="Arial" font-size="16px">std_regNo</text>
   <rect width="184" height="20" x="66" y="361" style="fill:none;stroke:black;"/>
   <text width="184" height="20" x="71" y="375" style="fill:black;" font-family="Arial" font-size="16px">stdStatus</text>
   <rect width="184" height="20" x="66" y="381" style="fill:none;stroke:black;"/>
   <text width="184" height="20" x="71" y="395" style="fill:black;" font-family="Arial" font-size="16px">emp_fullname</text>
   <rect width="184" height="20" x="66" y="401" style="fill:none;stroke:black;"/>
   <text width="184" height="20" x="71" y="415" style="fill:black;" font-family="Arial" font-size="16px">created_at</text>
   <rect width="184" height="20" x="66" y="421" style="fill:none;stroke:black;"/>
   <text width="184" height="20" x="71" y="435" style="fill:black;" font-family="Arial" font-size="16px">updated_at</text>
   <rect width="184" height="20" x="1148" y="5" style="fill:#007;stroke:black;"/>
   <text width="184" height="20" x="1153" y="19" style="fill:#fff;" font-family="Arial" font-size="16px"> employees</text>
   <rect width="184" height="20" x="1148" y="25" style="fill:none;stroke:black;"/>
   <text width="184" height="20" x="1153" y="39" style="fill:black;" font-family="Arial" font-size="16px">emp_id</text>
   <rect width="184" height="20" x="1148" y="45" style="fill:none;stroke:black;"/>
   <text width="184" height="20" x="1153" y="59" style="fill:black;" font-family="Arial" font-size="16px">emp_number</text>
   <rect width="184" height="20" x="1148" y="65" style="fill:none;stroke:black;"/>
   <text width="184" height="20" x="1153" y="79" style="fill:black;" font-family="Arial" font-size="16px">emp_fullname</text>
   <rect width="184" height="20" x="1148" y="85" style="fill:none;stroke:black;"/>
   <text width="184" height="20" x="1153" y="99" style="fill:black;" font-family="Arial" font-size="16px">faculty</text>
   <rect width="184" height="20" x="1148" y="105" style="fill:none;stroke:black;"/>
   <text width="184" height="20" x="1153" y="119" style="fill:black;" font-family="Arial" font-size="16px">department</text>
   <rect width="184" height="20" x="1148" y="125" style="fill:none;stroke:black;"/>
   <text width="184" height="20" x="1153" y="139" style="fill:black;" font-family="Arial" font-size="16px">position</text>
   <rect width="184" height="20" x="1148" y="145" style="fill:none;stroke:black;"/>
   <text width="184" height="20" x="1153" y="159" style="fill:black;" font-family="Arial" font-size="16px">gender</text>
   <rect width="184" height="20" x="1148" y="165" style="fill:none;stroke:black;"/>
   <text width="184" height="20" x="1153" y="179" style="fill:black;" font-family="Arial" font-size="16px">email</text>
   <rect width="184" height="20" x="1148" y="185" style="fill:none;stroke:black;"/>
   <text width="184" height="20" x="1153" y="199" style="fill:black;" font-family="Arial" font-size="16px">phone</text>
   <rect width="184" height="20" x="1148" y="205" style="fill:none;stroke:black;"/>
   <text width="184" height="20" x="1153" y="219" style="fill:black;" font-family="Arial" font-size="16px">emp_address</text>
   <rect width="184" height="20" x="1148" y="225" style="fill:none;stroke:black;"/>
   <text width="184" height="20" x="1153" y="239" style="fill:black;" font-family="Arial" font-size="16px">date_created</text>
   <rect width="184" height="20" x="1148" y="245" style="fill:none;stroke:black;"/>
   <text width="184" height="20" x="1153" y="259" style="fill:black;" font-family="Arial" font-size="16px">password</text>
   <rect width="184" height="20" x="1148" y="265" style="fill:none;stroke:black;"/>
   <text width="184" height="20" x="1153" y="279" style="fill:black;" font-family="Arial" font-size="16px">role</text>
   <rect width="184" height="20" x="53" y="29" style="fill:#007;stroke:black;"/>
   <text width="184" height="20" x="58" y="43" style="fill:#fff;" font-family="Arial" font-size="16px"> fin_clearance_request</text>
   <rect width="184" height="20" x="53" y="49" style="fill:none;stroke:black;"/>
   <text width="184" height="20" x="58" y="63" style="fill:black;" font-family="Arial" font-size="16px">fin_req_id</text>
   <rect width="184" height="20" x="53" y="69" style="fill:none;stroke:black;"/>
   <text width="184" height="20" x="58" y="83" style="fill:black;" font-family="Arial" font-size="16px">clr_id</text>
   <rect width="184" height="20" x="53" y="89" style="fill:none;stroke:black;"/>
   <text width="184" height="20" x="58" y="103" style="fill:black;" font-family="Arial" font-size="16px">std_fullnames</text>
   <rect width="184" height="20" x="53" y="109" style="fill:none;stroke:black;"/>
   <text width="184" height="20" x="58" y="123" style="fill:black;" font-family="Arial" font-size="16px">std_regNo</text>
   <rect width="184" height="20" x="53" y="129" style="fill:none;stroke:black;"/>
   <text width="184" height="20" x="58" y="143" style="fill:black;" font-family="Arial" font-size="16px">stdStatus</text>
   <rect width="184" height="20" x="53" y="149" style="fill:none;stroke:black;"/>
   <text width="184" height="20" x="58" y="163" style="fill:black;" font-family="Arial" font-size="16px">emp_fullname</text>
   <rect width="184" height="20" x="53" y="169" style="fill:none;stroke:black;"/>
   <text width="184" height="20" x="58" y="183" style="fill:black;" font-family="Arial" font-size="16px">created_at</text>
   <rect width="184" height="20" x="53" y="189" style="fill:none;stroke:black;"/>
   <text width="184" height="20" x="58" y="203" style="fill:black;" font-family="Arial" font-size="16px">updated_at</text>
   <rect width="184" height="20" x="42" y="469" style="fill:#007;stroke:black;"/>
   <text width="184" height="20" x="47" y="483" style="fill:#fff;" font-family="Arial" font-size="16px"> hod_clearance_request</text>
   <rect width="184" height="20" x="42" y="489" style="fill:none;stroke:black;"/>
   <text width="184" height="20" x="47" y="503" style="fill:black;" font-family="Arial" font-size="16px">hod_req_id</text>
   <rect width="184" height="20" x="42" y="509" style="fill:none;stroke:black;"/>
   <text width="184" height="20" x="47" y="523" style="fill:black;" font-family="Arial" font-size="16px">clr_id</text>
   <rect width="184" height="20" x="42" y="529" style="fill:none;stroke:black;"/>
   <text width="184" height="20" x="47" y="543" style="fill:black;" font-family="Arial" font-size="16px">std_fullnames</text>
   <rect width="184" height="20" x="42" y="549" style="fill:none;stroke:black;"/>
   <text width="184" height="20" x="47" y="563" style="fill:black;" font-family="Arial" font-size="16px">std_regNo</text>
   <rect width="184" height="20" x="42" y="569" style="fill:none;stroke:black;"/>
   <text width="184" height="20" x="47" y="583" style="fill:black;" font-family="Arial" font-size="16px">stdStatus</text>
   <rect width="184" height="20" x="42" y="589" style="fill:none;stroke:black;"/>
   <text width="184" height="20" x="47" y="603" style="fill:black;" font-family="Arial" font-size="16px">emp_fullname</text>
   <rect width="184" height="20" x="42" y="609" style="fill:none;stroke:black;"/>
   <text width="184" height="20" x="47" y="623" style="fill:black;" font-family="Arial" font-size="16px">created_at</text>
   <rect width="184" height="20" x="42" y="629" style="fill:none;stroke:black;"/>
   <text width="184" height="20" x="47" y="643" style="fill:black;" font-family="Arial" font-size="16px">updated_at</text>
   <rect width="184" height="20" x="442" y="31" style="fill:#007;stroke:black;"/>
   <text width="184" height="20" x="447" y="45" style="fill:#fff;" font-family="Arial" font-size="16px"> library_clearance_request</text>
   <rect width="184" height="20" x="442" y="51" style="fill:none;stroke:black;"/>
   <text width="184" height="20" x="447" y="65" style="fill:black;" font-family="Arial" font-size="16px">lib_req_id</text>
   <rect width="184" height="20" x="442" y="71" style="fill:none;stroke:black;"/>
   <text width="184" height="20" x="447" y="85" style="fill:black;" font-family="Arial" font-size="16px">clr_id</text>
   <rect width="184" height="20" x="442" y="91" style="fill:none;stroke:black;"/>
   <text width="184" height="20" x="447" y="105" style="fill:black;" font-family="Arial" font-size="16px">std_fullnames</text>
   <rect width="184" height="20" x="442" y="111" style="fill:none;stroke:black;"/>
   <text width="184" height="20" x="447" y="125" style="fill:black;" font-family="Arial" font-size="16px">std_regNo</text>
   <rect width="184" height="20" x="442" y="131" style="fill:none;stroke:black;"/>
   <text width="184" height="20" x="447" y="145" style="fill:black;" font-family="Arial" font-size="16px">stdStatus</text>
   <rect width="184" height="20" x="442" y="151" style="fill:none;stroke:black;"/>
   <text width="184" height="20" x="447" y="165" style="fill:black;" font-family="Arial" font-size="16px">emp_fullname</text>
   <rect width="184" height="20" x="442" y="171" style="fill:none;stroke:black;"/>
   <text width="184" height="20" x="447" y="185" style="fill:black;" font-family="Arial" font-size="16px">created_at</text>
   <rect width="184" height="20" x="442" y="191" style="fill:none;stroke:black;"/>
   <text width="184" height="20" x="447" y="205" style="fill:black;" font-family="Arial" font-size="16px">updated_at</text>
   <rect width="184" height="20" x="1215" y="405" style="fill:#007;stroke:black;"/>
   <text width="184" height="20" x="1220" y="419" style="fill:#fff;" font-family="Arial" font-size="16px"> login_logs</text>
   <rect width="184" height="20" x="1215" y="425" style="fill:none;stroke:black;"/>
   <text width="184" height="20" x="1220" y="439" style="fill:black;" font-family="Arial" font-size="16px">login_id</text>
   <rect width="184" height="20" x="1215" y="445" style="fill:none;stroke:black;"/>
   <text width="184" height="20" x="1220" y="459" style="fill:black;" font-family="Arial" font-size="16px">session_id</text>
   <rect width="184" height="20" x="1215" y="465" style="fill:none;stroke:black;"/>
   <text width="184" height="20" x="1220" y="479" style="fill:black;" font-family="Arial" font-size="16px">username</text>
   <rect width="184" height="20" x="1215" y="485" style="fill:none;stroke:black;"/>
   <text width="184" height="20" x="1220" y="499" style="fill:black;" font-family="Arial" font-size="16px">fullname</text>
   <rect width="184" height="20" x="1215" y="505" style="fill:none;stroke:black;"/>
   <text width="184" height="20" x="1220" y="519" style="fill:black;" font-family="Arial" font-size="16px">role</text>
   <rect width="184" height="20" x="1215" y="525" style="fill:none;stroke:black;"/>
   <text width="184" height="20" x="1220" y="539" style="fill:black;" font-family="Arial" font-size="16px">position</text>
   <rect width="184" height="20" x="1215" y="545" style="fill:none;stroke:black;"/>
   <text width="184" height="20" x="1220" y="559" style="fill:black;" font-family="Arial" font-size="16px">loginTime</text>
   <rect width="184" height="20" x="1215" y="565" style="fill:none;stroke:black;"/>
   <text width="184" height="20" x="1220" y="579" style="fill:black;" font-family="Arial" font-size="16px">logoutTime</text>
   <rect width="184" height="20" x="444" y="583" style="fill:#007;stroke:black;"/>
   <text width="184" height="20" x="449" y="597" style="fill:#fff;" font-family="Arial" font-size="16px"> reg_clearance_request</text>
   <rect width="184" height="20" x="444" y="603" style="fill:none;stroke:black;"/>
   <text width="184" height="20" x="449" y="617" style="fill:black;" font-family="Arial" font-size="16px">reg_req_id</text>
   <rect width="184" height="20" x="444" y="623" style="fill:none;stroke:black;"/>
   <text width="184" height="20" x="449" y="637" style="fill:black;" font-family="Arial" font-size="16px">clr_id</text>
   <rect width="184" height="20" x="444" y="643" style="fill:none;stroke:black;"/>
   <text width="184" height="20" x="449" y="657" style="fill:black;" font-family="Arial" font-size="16px">std_fullnames</text>
   <rect width="184" height="20" x="444" y="663" style="fill:none;stroke:black;"/>
   <text width="184" height="20" x="449" y="677" style="fill:black;" font-family="Arial" font-size="16px">std_regNo</text>
   <rect width="184" height="20" x="444" y="683" style="fill:none;stroke:black;"/>
   <text width="184" height="20" x="449" y="697" style="fill:black;" font-family="Arial" font-size="16px">stdStatus</text>
   <rect width="184" height="20" x="444" y="703" style="fill:none;stroke:black;"/>
   <text width="184" height="20" x="449" y="717" style="fill:black;" font-family="Arial" font-size="16px">emp_fullname</text>
   <rect width="184" height="20" x="444" y="723" style="fill:none;stroke:black;"/>
   <text width="184" height="20" x="449" y="737" style="fill:black;" font-family="Arial" font-size="16px">created_at</text>
   <rect width="184" height="20" x="444" y="743" style="fill:none;stroke:black;"/>
   <text width="184" height="20" x="449" y="757" style="fill:black;" font-family="Arial" font-size="16px">updated_at</text>
   <rect width="184" height="20" x="776" y="296" style="fill:#007;stroke:black;"/>
   <text width="184" height="20" x="781" y="310" style="fill:#fff;" font-family="Arial" font-size="16px"> students</text>
   <rect width="184" height="20" x="776" y="316" style="fill:none;stroke:black;"/>
   <text width="184" height="20" x="781" y="330" style="fill:black;" font-family="Arial" font-size="16px">std_id</text>
   <rect width="184" height="20" x="776" y="336" style="fill:none;stroke:black;"/>
   <text width="184" height="20" x="781" y="350" style="fill:black;" font-family="Arial" font-size="16px">std_regNo</text>
   <rect width="184" height="20" x="776" y="356" style="fill:none;stroke:black;"/>
   <text width="184" height="20" x="781" y="370" style="fill:black;" font-family="Arial" font-size="16px">std_fullname</text>
   <rect width="184" height="20" x="776" y="376" style="fill:none;stroke:black;"/>
   <text width="184" height="20" x="781" y="390" style="fill:black;" font-family="Arial" font-size="16px">faculty</text>
   <rect width="184" height="20" x="776" y="396" style="fill:none;stroke:black;"/>
   <text width="184" height="20" x="781" y="410" style="fill:black;" font-family="Arial" font-size="16px">department</text>
   <rect width="184" height="20" x="776" y="416" style="fill:none;stroke:black;"/>
   <text width="184" height="20" x="781" y="430" style="fill:black;" font-family="Arial" font-size="16px">levels</text>
   <rect width="184" height="20" x="776" y="436" style="fill:none;stroke:black;"/>
   <text width="184" height="20" x="781" y="450" style="fill:black;" font-family="Arial" font-size="16px">programs</text>
   <rect width="184" height="20" x="776" y="456" style="fill:none;stroke:black;"/>
   <text width="184" height="20" x="781" y="470" style="fill:black;" font-family="Arial" font-size="16px">specialization</text>
   <rect width="184" height="20" x="776" y="476" style="fill:none;stroke:black;"/>
   <text width="184" height="20" x="781" y="490" style="fill:black;" font-family="Arial" font-size="16px">mode_of_study</text>
   <rect width="184" height="20" x="776" y="496" style="fill:none;stroke:black;"/>
   <text width="184" height="20" x="781" y="510" style="fill:black;" font-family="Arial" font-size="16px">years</text>
   <rect width="184" height="20" x="776" y="516" style="fill:none;stroke:black;"/>
   <text width="184" height="20" x="781" y="530" style="fill:black;" font-family="Arial" font-size="16px">gender</text>
   <rect width="184" height="20" x="776" y="536" style="fill:none;stroke:black;"/>
   <text width="184" height="20" x="781" y="550" style="fill:black;" font-family="Arial" font-size="16px">email</text>
   <rect width="184" height="20" x="776" y="556" style="fill:none;stroke:black;"/>
   <text width="184" height="20" x="781" y="570" style="fill:black;" font-family="Arial" font-size="16px">phone</text>
   <rect width="184" height="20" x="776" y="576" style="fill:none;stroke:black;"/>
   <text width="184" height="20" x="781" y="590" style="fill:black;" font-family="Arial" font-size="16px">std_address</text>
   <rect width="184" height="20" x="776" y="596" style="fill:none;stroke:black;"/>
   <text width="184" height="20" x="781" y="610" style="fill:black;" font-family="Arial" font-size="16px">date_created</text>
   <rect width="184" height="20" x="776" y="616" style="fill:none;stroke:black;"/>
   <text width="184" height="20" x="781" y="630" style="fill:black;" font-family="Arial" font-size="16px">password</text>
   <rect width="184" height="20" x="776" y="636" style="fill:none;stroke:black;"/>
   <text width="184" height="20" x="781" y="650" style="fill:black;" font-family="Arial" font-size="16px">role</text>
   <rect width="184" height="20" x="776" y="656" style="fill:none;stroke:black;"/>
   <text width="184" height="20" x="781" y="670" style="fill:black;" font-family="Arial" font-size="16px">transcript</text>
   <rect width="184" height="20" x="776" y="676" style="fill:none;stroke:black;"/>
   <text width="184" height="20" x="781" y="690" style="fill:black;" font-family="Arial" font-size="16px">fee_statement</text>
   <rect width="184" height="20" x="776" y="696" style="fill:none;stroke:black;"/>
   <text width="184" height="20" x="781" y="710" style="fill:black;" font-family="Arial" font-size="16px">updated_at</text>
</svg>
